<svg  viewBox="0 0 800 800" version="1.1" xmlns="http://www.w3.org/2000/svg" style="fill-rule:evenodd;clip-rule:evenodd;stroke-linecap:round;stroke-linejoin:round;stroke-miterlimit:1.5;">
    <g transform="matrix(0.683012,0.683012,-0.683012,0.683012,411.864,-141.374)">
        <path d="M646.448,169.591C646.448,156.67 635.958,146.179 623.037,146.179L152.221,146.179C139.3,146.179 128.81,156.67 128.81,169.591L128.81,640.406C128.81,653.328 139.3,663.818 152.221,663.818L623.037,663.818C635.958,663.818 646.448,653.328 646.448,640.406L646.448,169.591Z"/>
    </g>
    <g transform="matrix(1.52753,0,0,1.52753,-197.886,-212.373)">
        <circle cx="391.408" cy="400.891" r="81.832" style="fill:white;"/>
    </g>
    <g transform="matrix(0.611011,0,0,0.611011,160.845,155.051)">
        <circle cx="391.408" cy="400.891" r="81.832" style="fill:white;"/>
    </g>
    <g transform="matrix(0.152753,0,0,0.152753,340.211,338.763)">
        <circle cx="391.408" cy="400.891" r="81.832"/>
    </g>
    <g>
        <path d="M585.913,601.579L585.913,488.141C585.913,474.343 597.115,463.141 610.913,463.141C624.711,463.141 635.913,474.343 635.913,488.141L635.913,591.985L637.913,591.985L637.913,513.658C637.913,499.86 649.115,488.658 662.913,488.658C676.711,488.658 687.913,499.86 687.913,513.658L687.913,602.615C688.248,602.794 688.581,602.975 688.913,603.157L688.913,564.305C688.913,550.507 700.115,539.305 713.913,539.305C727.711,539.305 738.913,550.507 738.913,564.305L738.913,663.141C738.913,667.639 737.723,671.86 735.641,675.508C735.821,677.84 735.913,680.197 735.913,682.575C735.913,732.572 695.321,773.164 645.324,773.164L626.503,773.164C602.188,773.164 580.099,763.564 563.82,747.952C559.803,746.837 556.011,744.702 552.855,741.547L467.616,656.307C457.859,646.551 457.859,630.709 467.616,620.952C477.372,611.195 493.214,611.195 502.971,620.952L533.913,651.894L533.913,513.658C533.913,499.86 545.115,488.658 558.913,488.658C572.711,488.658 583.913,499.86 583.913,513.658L583.913,602.615C584.575,602.262 585.242,601.916 585.913,601.579Z" style="fill:white;stroke:black;stroke-width:9px;"/>
    </g>
</svg>
